<svg style="display: block;" aria-hidden="true" xmlns="http://www.w3.org/2000/svg" xmlns:xlink="http://www.w3.org/1999/xlink">
<symbol viewBox="0 0 30 30" id="svg-about_people"><path fill-rule="evenodd" clip-rule="evenodd" d="M17.2367 7.77151C16.7729 8.09308 16.2497 8.31905 15.6976 8.43623C15.1456 8.55342 14.5757 8.55949 14.0212 8.45407C13.4668 8.34865 12.9389 8.13385 12.4684 7.82223C11.9979 7.5106 11.5941 7.10838 11.2807 6.63904C10.9673 6.1697 10.7505 5.64263 10.643 5.08861C10.5354 4.53458 10.5393 3.96468 10.6544 3.41218C10.7695 2.85967 10.9935 2.33562 11.3133 1.8706C11.6331 1.40559 12.0423 1.00893 12.517 0.703761C13.4544 0.0846608 14.5986 -0.138187 15.6998 0.0839308C16.8009 0.306048 17.7693 0.955065 18.3933 1.88911C19.0173 2.82315 19.2462 3.96625 19.0298 5.06853C18.8135 6.17081 18.1696 7.14262 17.2388 7.77151H17.2367ZM16.0573 2.47176C15.8259 2.30528 15.5633 2.18706 15.2853 2.12415C15.0072 2.06124 14.7193 2.05493 14.4388 2.10558C14.1583 2.15622 13.8908 2.26281 13.6523 2.41897C13.4138 2.57514 13.2091 2.7777 13.0505 3.0146C12.8919 3.25149 12.7826 3.51788 12.7291 3.79789C12.6756 4.07791 12.679 4.36583 12.739 4.64451C12.7991 4.92319 12.9146 5.18694 13.0788 5.42004C13.2429 5.65315 13.4522 5.85086 13.6943 6.00139C14.162 6.28552 14.7214 6.37824 15.2558 6.26023C15.7902 6.14222 16.2585 5.82258 16.563 5.36789C16.8676 4.9132 16.985 4.35852 16.8908 3.81941C16.7966 3.2803 16.498 2.79833 16.0573 2.47389V2.47176ZM21.6036 2.53551C22.2164 2.12326 22.9539 1.93762 23.6889 2.01054C24.4239 2.08346 25.1105 2.41038 25.6304 2.93501C26.0009 3.30848 26.2741 3.76715 26.426 4.27079C26.578 4.77443 26.604 5.30766 26.5018 5.82371C26.3997 6.33975 26.1724 6.82284 25.8401 7.23061C25.5077 7.63838 25.0804 7.95837 24.5956 8.16251C24.0133 8.40598 23.3715 8.47011 22.7526 8.34669C22.1336 8.22328 21.5656 7.91794 21.1212 7.46976C20.7872 7.13405 20.5315 6.72865 20.3725 6.28259C20.2135 5.83653 20.155 5.36083 20.2013 4.88954C20.2476 4.41825 20.3975 3.96302 20.6403 3.55643C20.8831 3.14984 21.2127 2.80194 21.6057 2.53764L21.6036 2.53551ZM22.6236 5.95676C22.8231 6.15543 23.0933 6.2667 23.3749 6.2661C23.5143 6.2658 23.6523 6.23805 23.7809 6.18443C23.9096 6.13081 24.0265 6.05236 24.1249 5.95357C24.2232 5.85479 24.3012 5.73759 24.3543 5.60868C24.4073 5.47977 24.4345 5.34167 24.4342 5.20226C24.4339 5.06285 24.4062 4.92486 24.3525 4.79618C24.2989 4.66749 24.2205 4.55063 24.1217 4.45226C23.9238 4.25328 23.6564 4.13899 23.3758 4.13351C23.2357 4.13323 23.0968 4.16073 22.9674 4.21442C22.8379 4.26811 22.7204 4.34694 22.6216 4.44633C22.5228 4.54573 22.4447 4.66372 22.3918 4.7935C22.3388 4.92327 22.3122 5.06224 22.3133 5.20239C22.314 5.48539 22.4253 5.7569 22.6236 5.95889V5.95676ZM4.65455 24.3975H8.5008V26.5331H4.65455C3.98123 26.5271 3.3378 26.2542 2.8653 25.7745C2.39099 25.293 2.12533 24.6441 2.1258 23.9683V20.122C1.8397 20.1124 1.5585 20.045 1.29919 19.9237C1.03988 19.8025 0.807827 19.6299 0.61705 19.4165C0.414334 19.2112 0.255241 18.967 0.149338 18.6985C0.0434344 18.4301 -0.00709083 18.1431 0.000800442 17.8546V13.2179C0.00717544 12.2149 0.40455 11.2565 1.1058 10.5446C1.80493 9.84126 2.75055 9.43964 3.7408 9.43326H7.6508C7.1234 10.0614 6.72612 10.788 6.48205 11.571H3.7408C3.30951 11.5834 2.89915 11.7597 2.5933 12.064C2.29287 12.3729 2.1251 12.787 2.1258 13.2179V17.9609H4.2508V23.9661C4.24587 24.024 4.25275 24.0823 4.27101 24.1375C4.28928 24.1926 4.31855 24.2435 4.35705 24.287C4.44247 24.353 4.54664 24.3902 4.65455 24.3933V24.3975ZM20.167 10.5468C19.8193 10.1957 19.4057 9.91675 18.9498 9.72602C18.494 9.53529 18.0049 9.43652 17.5108 9.43539H12.2408C11.2502 9.44331 10.3029 9.84284 9.6058 10.5468C8.90455 11.2586 8.50718 12.217 8.5008 13.22V19.9733C8.4978 20.5531 8.71853 21.1118 9.11705 21.533C9.30806 21.7462 9.54016 21.9185 9.79943 22.0397C10.0587 22.161 10.3398 22.2286 10.6258 22.2385V27.1749C10.6238 27.5118 10.6885 27.8458 10.8161 28.1576C10.9438 28.4695 11.1319 28.7529 11.3696 28.9918C11.7521 29.3488 12.2344 29.5804 12.7508 29.6548H17.0008C17.5985 29.5763 18.1461 29.2797 18.5384 28.8219C18.9306 28.3642 19.1398 27.7776 19.1258 27.1749V22.2364C19.4119 22.2268 19.6931 22.1594 19.9524 22.0381C20.2117 21.9169 20.4438 21.7443 20.6346 21.5309C20.8371 21.3259 20.9961 21.082 21.102 20.814C21.2079 20.5459 21.2585 20.2592 21.2508 19.9711V13.2179C21.2523 12.2195 20.8633 11.2601 20.167 10.5446V10.5468ZM19.1258 20.0774H17.0008V27.1749C16.9987 27.2869 16.953 27.3937 16.8733 27.4724C16.837 27.5153 16.7913 27.5492 16.7396 27.5713C16.688 27.5935 16.6319 27.6032 16.5758 27.5999H13.1546C13.0435 27.5947 12.9384 27.5483 12.8598 27.4697C12.7812 27.3911 12.7347 27.2859 12.7296 27.1749V20.0774H10.6258V13.2179C10.6258 12.7865 10.7937 12.3721 11.0933 12.064C11.3992 11.7597 11.8095 11.5834 12.2408 11.571H17.5108C17.8327 11.5767 18.146 11.6762 18.4121 11.8574C18.6782 12.0386 18.8857 12.2936 19.0089 12.591C19.0898 12.7899 19.1296 13.0032 19.1258 13.2179V20.0774ZM25.0971 26.531H21.2508V24.3954H25.0758C25.1837 24.3924 25.2879 24.3551 25.3733 24.2891C25.4161 24.2473 25.4496 24.1969 25.4715 24.1413C25.4935 24.0856 25.5035 24.0259 25.5008 23.9661V17.9609H27.6258V13.2179C27.6265 12.787 27.4587 12.3729 27.1583 12.064C26.8524 11.7597 26.4421 11.5834 26.0108 11.571H23.2696C23.0256 10.788 22.6283 10.0613 22.1008 9.43326H26.0108C27.0012 9.44234 27.9481 9.84169 28.6458 10.5446C29.347 11.2565 29.7444 12.2149 29.7508 13.2179V17.8546C29.7508 18.4348 29.5319 18.9915 29.1367 19.4123C28.7414 19.8351 28.2017 20.088 27.6258 20.1199V23.9661C27.6258 24.644 27.3602 25.2921 26.8863 25.7724C26.4138 26.2521 25.7704 26.5249 25.0971 26.531ZM6.3758 1.99576C5.74346 1.99503 5.12531 2.18314 4.60057 2.536C4.07583 2.88885 3.66842 3.39037 3.43055 3.97626C3.19049 4.56195 3.12817 5.20536 3.25136 5.82623C3.37456 6.4471 3.67781 7.01797 4.1233 7.46764C4.56863 7.91678 5.13774 8.22298 5.75793 8.34712C6.37812 8.47126 7.02124 8.4077 7.60514 8.16456C8.18903 7.92142 8.68719 7.50975 9.03598 6.98212C9.38478 6.45449 9.56837 5.83486 9.5633 5.20239C9.5633 4.35239 9.22755 3.53639 8.6283 2.93501C8.33323 2.63779 7.98233 2.40181 7.59577 2.24063C7.20921 2.07944 6.79462 1.99622 6.3758 1.99576ZM6.3758 6.27126C6.23565 6.27155 6.09684 6.24405 5.96739 6.19035C5.83793 6.13666 5.72041 6.05784 5.6216 5.95844C5.5228 5.85905 5.44468 5.74105 5.39176 5.61128C5.33885 5.48151 5.31218 5.34253 5.3133 5.20239C5.31385 4.92017 5.42577 4.64959 5.62473 4.44944C5.82368 4.24928 6.0936 4.13575 6.3758 4.13351C6.65714 4.13847 6.92548 4.25287 7.12386 4.45244C7.32223 4.652 7.43503 4.92102 7.4383 5.20239C7.43775 5.4846 7.32583 5.75519 7.12688 5.95534C6.92792 6.15549 6.658 6.26902 6.3758 6.27126Z" /></symbol>
<symbol viewBox="0 0 32 26"  id="svg-about_speed"><path d="M29.8154 7.36456L27.8167 10.3708C28.7806 12.2933 29.2525 14.4249 29.1901 16.5746C29.1277 18.7243 28.5329 20.825 27.4592 22.6883H4.93666C3.54106 20.2672 2.96277 17.4609 3.28751 14.6853C3.61226 11.9097 4.82277 9.31265 6.73956 7.27913C8.65636 5.2456 11.1774 3.88388 13.929 3.39581C16.6806 2.90775 19.5162 3.31934 22.0154 4.56956L25.0217 2.57081C21.9609 0.608159 18.3304 -0.27131 14.7109 0.0730789C11.0913 0.417467 7.69176 1.96581 5.05609 4.47045C2.42042 6.97509 0.700875 10.2913 0.172515 13.8886C-0.355844 17.486 0.337506 21.1566 2.14166 24.3133C2.42524 24.8045 2.83243 25.2129 3.32276 25.498C3.81309 25.7831 4.36949 25.9349 4.93666 25.9383H27.4429C28.0156 25.9406 28.5787 25.7915 29.0752 25.5061C29.5718 25.2208 29.9841 24.8093 30.2704 24.3133C31.7676 21.7197 32.519 18.7627 32.4416 15.769C32.3642 12.7752 31.461 9.86108 29.8317 7.34831L29.8154 7.36456ZM13.9067 18.4796C14.2085 18.7817 14.5669 19.0214 14.9615 19.185C15.356 19.3486 15.7789 19.4327 16.206 19.4327C16.6331 19.4327 17.056 19.3486 17.4506 19.185C17.8451 19.0214 18.2036 18.7817 18.5054 18.4796L27.7029 4.68331L13.9067 13.8808C13.6045 14.1826 13.3648 14.5411 13.2012 14.9356C13.0377 15.3302 12.9535 15.7531 12.9535 16.1802C12.9535 16.6073 13.0377 17.0302 13.2012 17.4247C13.3648 17.8193 13.6045 18.1777 13.9067 18.4796Z" /></symbol>
<symbol viewBox="0 0 48 48" id="svg-consult_environment"><g clip-path="url(#cclip0_964_18504)"><path d="M42.5886 12.5255H37.519V7.45592C37.519 6.55955 37.1629 5.6999 36.5291 5.06608C35.8953 4.43225 35.0356 4.07617 34.1393 4.07617H13.8608C12.9644 4.07617 12.1048 4.43225 11.4709 5.06608C10.8371 5.6999 10.481 6.55955 10.481 7.45592V12.5255H5.41142C4.06687 12.5255 2.77739 13.0597 1.82665 14.0104C0.875916 14.9611 0.341797 16.2506 0.341797 17.5952V41.2534C0.341797 42.1497 0.697876 43.0094 1.3317 43.6432C1.96553 44.2771 2.82518 44.6331 3.72154 44.6331H44.2785C45.1749 44.6331 46.0345 44.2771 46.6683 43.6432C47.3022 43.0094 47.6582 42.1497 47.6582 41.2534V17.5952C47.6582 16.2506 47.1241 14.9611 46.1734 14.0104C45.2227 13.0597 43.9332 12.5255 42.5886 12.5255ZM13.8608 7.45592H34.1393V12.5255H13.8608V7.45592ZM44.2785 41.2534H3.72154V26.0445H17.2405V34.4939H30.7595V26.0445H44.2785V41.2534ZM20.6203 26.0445H27.3798V31.1141H20.6203V26.0445ZM3.72154 22.6648V17.5952C3.72154 17.147 3.89958 16.7172 4.2165 16.4002C4.53341 16.0833 4.96323 15.9053 5.41142 15.9053H42.5886C43.0368 15.9053 43.4666 16.0833 43.7836 16.4002C44.1005 16.7172 44.2785 17.147 44.2785 17.5952V22.6648H3.72154Z" /></g><defs><clipPath id="cclip0_964_18504"><path fill="#fff" transform="translate(0 4)" d="M0 0H48V40.709H0z"/></clipPath></defs></symbol>
<symbol viewBox="0 0 48 48"  id="svg-consult_finance"><g clip-path="url(#dclip0_964_18511)" ><path opacity=".15" d="M43.6503 13.75H4.35031C4.33231 13.75 4.32031 13.7619 4.32031 13.7796V19.1849C4.32031 22.7291 7.26031 25.6037 10.8783 25.6037C13.3203 25.6037 15.4503 24.2998 16.5843 22.3617C16.7583 22.0594 17.0883 21.8698 17.4423 21.8698C17.7963 21.8698 18.1203 22.0594 18.3003 22.3617C19.4283 24.2998 21.5583 25.6037 24.0003 25.6037C26.4483 25.6037 28.5843 24.2938 29.7063 22.3498C29.8803 22.0535 30.1983 21.8698 30.5403 21.8698H30.5763C30.9243 21.8698 31.2363 22.0535 31.4103 22.3498C32.5383 24.2938 34.6743 25.6037 37.1223 25.6037C40.7403 25.6037 43.6803 22.7291 43.6803 19.1849V13.7796C43.6803 13.7619 43.6683 13.75 43.6503 13.75Z"/><path d="M46.2 9.48885V1.89659C46.2 0.847537 45.342 0 44.28 0H3.72003C2.65804 0 1.80004 0.847537 1.80004 1.89659V9.48885C0.798037 9.54812 3.71756e-05 10.372 3.71756e-05 11.3795V19.1851C-0.00380525 20.6197 0.290253 22.0398 0.864037 23.3576C1.12204 23.9622 1.44004 24.5311 1.80004 25.0705V45.518C1.80004 46.5612 2.65804 47.4146 3.72003 47.4146H44.28C45.342 47.4146 46.2 46.5671 46.2 45.518V25.0705C46.5657 24.5298 46.879 23.9563 47.136 23.3576C47.706 22.036 48 20.6313 48 19.1851V11.3795C48 10.372 47.202 9.54812 46.2 9.48885ZM6.12003 4.26732H41.88V9.48293H6.12003V4.26732ZM27.84 43.1532H20.16V36.9834H27.84V43.1532ZM41.904 43.1532H31.68V35.0868C31.68 34.0378 30.822 33.1902 29.76 33.1902H18.24C17.178 33.1902 16.32 34.0378 16.32 35.0868V43.1532H6.12003V28.7985C6.29403 28.8814 6.47403 28.9644 6.66003 29.0355C7.99803 29.5927 9.42003 29.8712 10.884 29.8712C12.348 29.8712 13.764 29.5927 15.108 29.0355C15.936 28.6918 16.716 28.2532 17.43 27.7257C17.442 27.7198 17.454 27.7198 17.466 27.7257C18.1822 28.2554 18.9622 28.6954 19.788 29.0355C21.126 29.5927 22.548 29.8712 24.012 29.8712C25.476 29.8712 26.892 29.5927 28.236 29.0355C29.064 28.6918 29.844 28.2532 30.558 27.7257C30.57 27.7198 30.582 27.7198 30.594 27.7257C31.3102 28.2554 32.0902 28.6954 32.916 29.0355C34.254 29.5927 35.676 29.8712 37.14 29.8712C38.604 29.8712 40.02 29.5927 41.364 29.0355C41.544 28.9585 41.724 28.8814 41.904 28.7985V43.1532ZM43.68 19.1851C43.68 22.7294 40.74 25.6039 37.122 25.6039C34.674 25.6039 32.538 24.2941 31.41 22.3501C31.236 22.0537 30.924 21.87 30.576 21.87H30.54C30.198 21.87 29.88 22.0537 29.706 22.3501C29.1304 23.3417 28.2992 24.1652 27.297 24.7367C26.2948 25.3082 25.1572 25.6074 24 25.6039C21.558 25.6039 19.428 24.3 18.3 22.3619C18.12 22.0597 17.796 21.87 17.442 21.87C17.088 21.87 16.758 22.0597 16.584 22.3619C16.005 23.3498 15.1728 24.1695 14.1711 24.7387C13.1694 25.3078 12.0336 25.6062 10.878 25.6039C7.26003 25.6039 4.32003 22.7294 4.32003 19.1851V13.7799C4.32003 13.7621 4.33203 13.7502 4.35003 13.7502H43.65C43.668 13.7502 43.68 13.7621 43.68 13.7799V19.1851Z"/></g><defs><clipPath id="dclip0_964_18511"><path fill="#fff" d="M0 0H48V47.415H0z"/></clipPath></defs></symbol>
<symbol viewBox="0 0 48 38"  id="svg-consult_services"><g clip-path="url(#eclip0_993_486)" ><path d="M29.1416 8.62402H41.1395V12.0693H29.1416V8.62402zM29.1416 17.2373H41.1395V20.6826H29.1416V17.2373zM29.1416 25.8506H41.1395V29.2959H29.1416V25.8506z"/><path d="M44.5674 0.0112305H3.43187C2.52299 0.0121426 1.65161 0.375424 1.00893 1.02135C0.366264 1.66727 0.00481376 2.54307 0.00390625 3.45655V34.4644C0.00481376 35.3779 0.366264 36.2537 1.00893 36.8996C1.65161 37.5455 2.52299 37.9088 3.43187 37.9097H44.5674C45.4761 37.9084 46.3472 37.5449 46.9898 36.8991C47.6324 36.2533 47.994 35.3777 47.9953 34.4644V3.45655C47.9944 2.54307 47.633 1.66727 46.9903 1.02135C46.3477 0.375424 45.4763 0.0121426 44.5674 0.0112305ZM3.43187 3.45655H22.2856V34.4644H3.43187V3.45655ZM25.7136 34.4644V3.45655H44.5674L44.5708 34.4644H25.7136Z"/></g><defs><clipPath id="eclip0_993_486"><path fill="#fff" d="M0 0H48V37.92H0z"/></clipPath></defs></symbol>
<symbol viewBox="0 0 48 41" id="svg-design_bussines"><g clip-path="url(#fclip0_993_518)"><path d="M42.5886 8.52554H37.519V3.45592C37.519 2.55955 37.1629 1.6999 36.5291 1.06608C35.8953 0.432251 35.0356 0.0761719 34.1393 0.0761719H13.8608C12.9644 0.0761719 12.1048 0.432251 11.4709 1.06608C10.8371 1.6999 10.481 2.55955 10.481 3.45592V8.52554H5.41142C4.06687 8.52554 2.77739 9.05966 1.82665 10.0104C0.875916 10.9611 0.341797 12.2506 0.341797 13.5952V37.2534C0.341797 38.1497 0.697876 39.0094 1.3317 39.6432C1.96553 40.2771 2.82518 40.6331 3.72154 40.6331H44.2785C45.1749 40.6331 46.0345 40.2771 46.6683 39.6432C47.3022 39.0094 47.6582 38.1497 47.6582 37.2534V13.5952C47.6582 12.2506 47.1241 10.9611 46.1734 10.0104C45.2227 9.05966 43.9332 8.52554 42.5886 8.52554ZM13.8608 3.45592H34.1393V8.52554H13.8608V3.45592ZM44.2785 37.2534H3.72154V22.0445H17.2405V30.4939H30.7595V22.0445H44.2785V37.2534ZM20.6203 22.0445H27.3798V27.1141H20.6203V22.0445ZM3.72154 18.6648V13.5952C3.72154 13.147 3.89958 12.7172 4.2165 12.4002C4.53341 12.0833 4.96323 11.9053 5.41142 11.9053H42.5886C43.0368 11.9053 43.4666 12.0833 43.7836 12.4002C44.1005 12.7172 44.2785 13.147 44.2785 13.5952V18.6648H3.72154Z" /></g><defs><clipPath id="fclip0_993_518"><path fill="#fff" d="M0 0H48V40.709H0z"/></clipPath></defs></symbol>
<symbol viewBox="0 0 48 45"  id="svg-design_consumer"><g clip-path="url(#gclip0_993_496)" ><path d="M23.8406 20.8025C28.1448 20.8025 31.4925 17.3071 31.4925 13.0173 31.4925 8.72759 27.9854 5.39111 23.6812 5.39111 19.377 5.39111 16.0293 8.88647 16.0293 13.0173 16.0293 17.3071 19.5364 20.8025 23.8406 20.8025zM23.6812 8.56871C23.8406 8.56871 23.8406 8.56871 23.6812 8.56871 26.2318 8.56871 28.3042 10.6342 28.3042 13.1762 28.3042 15.7183 26.2318 17.6249 23.6812 17.6249 21.1306 17.6249 19.2176 15.5594 19.2176 13.1762 19.2176 10.6342 21.29 8.56871 23.6812 8.56871zM47.4335 19.8487C44.4046 17.1477 40.4193 15.7178 36.2745 15.8767H34.9992C34.6804 17.1477 34.2021 18.2599 33.5645 19.2132 34.5209 19.0543 35.318 19.0543 36.2745 19.0543 39.3034 18.8954 42.3323 19.8487 44.7235 21.5964V33.0357H47.9118V20.3253L47.4335 19.8487zM32.6088 5.70826C33.4058 3.8017 35.6376 2.84842 37.71 3.64282 39.623 4.43722 40.5795 6.66154 39.7824 8.72697 39.1448 10.1569 37.71 11.1102 36.2753 11.1102 35.9565 11.1102 35.4782 11.1102 35.1594 10.9513 35.3188 11.7457 35.3188 12.5401 35.3188 13.1756V14.1289C35.6376 14.1289 35.9565 14.2878 36.2753 14.2878 40.2607 14.2878 43.449 11.1102 43.449 7.29706 43.449 3.32506 40.2607.147461 36.4347.147461 33.8841.147461 31.6523 1.4185 30.377 3.64282 31.174 4.11946 31.9711 4.75498 32.6088 5.70826zM14.4352 19.3724C13.7975 18.4191 13.3193 17.3069 13.0005 16.0359H11.7252C7.58037 15.877 3.59501 17.3069.566134 19.849L.0878906 20.3257V33.0361H3.27618V21.5967C5.82681 19.849 8.69628 18.8957 11.7252 19.0546 12.6816 19.0546 13.6381 19.2135 14.4352 19.3724zM11.7246 14.1295C12.0435 14.1295 12.3623 14.1295 12.6811 13.9706V13.0174C12.6811 12.223 12.6811 11.4286 12.8405 10.793 12.5217 10.9519 12.0435 10.9519 11.7246 10.9519 9.65225 10.9519 7.89869 9.20424 7.89869 7.1388 7.89869 5.07336 9.65225 3.32568 11.7246 3.32568 13.3188 3.32568 14.7535 4.27896 15.3912 5.70888 16.0288 4.91448 16.9853 4.12008 17.7824 3.48456 15.71.148085 11.4058-.964074 8.0581 1.10136 4.7104 3.1668 3.59449 7.45656 5.66688 10.793 6.9422 12.8585 9.174 14.1295 11.7246 14.1295zM36.9128 29.3817L36.594 28.9051C33.4057 25.4097 28.9421 23.3443 24.1596 23.5032 19.3772 23.3443 14.7542 25.4097 11.5659 28.9051L11.2471 29.3817V41.4566C11.2471 42.8865 12.363 44.1576 13.9571 44.1576H34.3622C35.7969 44.1576 37.0722 42.8865 37.0722 41.4566V29.3817H36.9128zM33.7245 40.98H14.4354V30.4939C16.986 27.9518 20.4931 26.6808 24.1596 26.6808 27.6668 26.5219 31.1739 27.9518 33.7245 30.4939V40.98z"/></g><defs><clipPath id="gclip0_993_496"><path fill="#fff" d="M0 0H48V44.211H0z"/></clipPath></defs></symbol>
<symbol viewBox="0 0 36 48"  id="svg-design_environment"><g clip-path="url(#hclip0_993_514)"><path d="M9.06374 33.9949C8.25268 33.1802 8.67548 33.4099 6.71921 32.8839C5.83161 32.6449 5.05134 32.1855 4.34574 31.6352L0.111208 42.0639C-0.298526 43.0736 0.466808 44.1705 1.55134 44.1292L6.46908 43.9408L9.85148 47.5296C10.5981 48.3208 11.9085 48.0742 12.3183 47.0646L17.1763 35.1002C16.1645 35.6664 15.0417 35.9983 13.8807 35.9983C12.0607 35.9983 10.3508 35.2867 9.06374 33.9949ZM35.7272 42.0639L31.4927 31.6352C30.7871 32.1864 30.0068 32.6449 29.1192 32.8839C27.1527 33.4127 27.5839 33.1821 26.7747 33.9949C25.4876 35.2867 23.7768 35.9983 21.9568 35.9983C20.7957 35.9983 19.6729 35.6655 18.6612 35.1002L23.5192 47.0646C23.9289 48.0742 25.2403 48.3208 25.986 47.5296L29.3693 43.9408L34.2871 44.1292C35.3716 44.1705 36.1369 43.0727 35.7272 42.0639ZM24.5459 31.8733C25.972 30.4155 26.1353 30.5411 28.1663 29.9852C29.4627 29.6299 30.4763 28.5939 30.8235 27.2683C31.5216 24.6058 31.3405 24.9274 33.2455 22.9792C34.1947 22.0089 34.5652 20.5942 34.218 19.2686C33.5208 16.608 33.5199 16.9792 34.218 14.3158C34.5652 12.9902 34.1947 11.5755 33.2455 10.6052C31.3405 8.65706 31.5216 8.97769 30.8235 6.31613C30.4763 4.9905 29.4627 3.95456 28.1663 3.59925C25.5641 2.88581 25.8777 3.07238 23.9709 1.12331C23.0217 0.153002 21.6376 -0.226685 20.3412 0.128627C17.74 0.841127 18.1031 0.842064 15.4972 0.128627C14.2008 -0.226685 12.8167 0.152065 11.8675 1.12331C9.96254 3.07144 10.2761 2.88581 7.67308 3.59925C6.37668 3.95456 5.36308 4.9905 5.01588 6.31613C4.31868 8.97769 4.49881 8.65706 2.59387 10.6052C1.64467 11.5755 1.27321 12.9902 1.62134 14.3158C2.31854 16.9746 2.31947 16.6033 1.62134 19.2677C1.27414 20.5933 1.64467 22.008 2.59387 22.9792C4.49881 24.9274 4.31774 24.6058 5.01588 27.2683C5.36308 28.5939 6.37668 29.6299 7.67308 29.9852C9.76188 30.5571 9.91774 30.4671 11.2925 31.8733C12.5273 33.1361 14.4509 33.3621 15.9349 32.4189C16.5284 32.0405 17.2168 31.8396 17.9197 31.8396C18.6226 31.8396 19.311 32.0405 19.9044 32.4189C21.3875 33.3621 23.3111 33.1361 24.5459 31.8733ZM9.11414 16.4946C9.11414 11.523 13.0565 7.49269 17.9192 7.49269C22.7819 7.49269 26.7243 11.523 26.7243 16.4946C26.7243 21.4661 22.7819 25.4964 17.9192 25.4964C13.0565 25.4964 9.11414 21.4661 9.11414 16.4946Z" /></g><defs><clipPath id="hclip0_993_514"><path fill="#fff" d="M0 0H35.84V48H0z"/></clipPath></defs></symbol>
<symbol viewBox="0 0 48 28"  id="svg-design_financial"><path d="M43.1506 12.2819C42.5751 12.2861 42.005 12.3959 41.4678 12.6061L35.7275 7.82142C35.8687 7.29981 35.9692 6.7587 35.9692 6.18834C35.9692 2.81004 33.3026 0.0947266 29.9848 0.0947266C26.667 0.0947266 24.0003 2.81004 24.0003 6.18834C24.0003 7.15356 24.2397 8.05298 24.6275 8.86221L17.664 17.2421C17.3852 17.189 17.1025 17.1605 16.819 17.1568C16.3905 17.1568 15.9859 17.23 15.5934 17.3372L9.4581 11.09C9.56582 10.6927 9.63763 10.2808 9.63763 9.8445C9.63763 7.14381 7.50238 4.96961 4.85006 4.96961C2.19775 4.96961 0.0625 7.14381 0.0625 9.8445C0.0625 12.5452 2.19775 14.7194 4.85006 14.7194C5.27855 14.7194 5.6831 14.6463 6.07568 14.539L12.2109 20.7862C12.0959 21.1911 12.0355 21.6102 12.0314 22.0317C12.0314 24.7324 14.1667 26.9066 16.819 26.9066C19.4713 26.9066 21.6065 24.7324 21.6065 22.0317C21.6065 21.454 21.4916 20.9105 21.3121 20.3962L28.2852 12.0065C28.8286 12.1674 29.3911 12.2819 29.9848 12.2819C30.9295 12.2766 31.8593 12.0418 32.6969 11.597L38.4396 16.3817C38.3946 16.6377 38.369 16.8968 38.363 17.1568C38.363 19.8575 40.4983 22.0317 43.1506 22.0317C45.8029 22.0317 47.9381 19.8575 47.9381 17.1568C47.9381 14.4561 45.8029 12.2819 43.1506 12.2819Z" /></symbol>
<symbol viewBox="0 0 70 71"  id="svg-email"><path d="M68.3484 1.16199C67.9592 0.759029 67.4674 0.480035 66.9308 0.357809C66.3943 0.235584 65.8354 0.275208 65.3198 0.472024L1.8615 24.4708C1.31422 24.6867 0.84305 25.0706 0.51056 25.5716C0.178071 26.0726 0 26.6669 0 27.2756C0 27.8844 0.178071 28.4787 0.51056 28.9797C0.84305 29.4807 1.31422 29.8646 1.8615 30.0805L29.5524 41.5999L40.6287 70.3984C40.8368 70.9426 41.1935 71.4115 41.6549 71.7473C42.1162 72.0832 42.6619 72.2712 43.2248 72.2883C43.8077 72.2759 44.3733 72.08 44.847 71.7266C45.3207 71.3732 45.6804 70.8787 45.8785 70.3084L68.9542 4.31183C69.1507 3.78108 69.1981 3.20317 69.0909 2.64548C68.9836 2.08779 68.7261 1.5733 68.3484 1.16199ZM43.2248 60.8889L35.1771 39.89L48.9937 25.5207L44.9266 21.291L30.9946 35.7802L10.9187 27.2906L61.4834 8.30162L43.2248 60.8889Z" /></symbol>
<symbol viewBox="0 0 24 31"  id="svg-location"><g clip-path="url(#kclip0_964_17688)" ><path d="M11.9999 18.2499C15.3089 18.2499 17.9999 15.5589 17.9999 12.2499C17.9999 8.94097 15.3089 6.25 11.9999 6.25C8.69097 6.25 6 8.94097 6 12.2499C6 15.5589 8.69097 18.2499 11.9999 18.2499ZM11.9999 9.24997C13.6544 9.24997 14.9999 10.5955 14.9999 12.2499C14.9999 13.9044 13.6544 15.2499 11.9999 15.2499C10.3455 15.2499 8.99997 13.9044 8.99997 12.2499C8.99997 10.5955 10.3455 9.24997 11.9999 9.24997Z"/><path d="M11.13 29.9707C11.3839 30.152 11.688 30.2494 12 30.2494C12.312 30.2494 12.6161 30.152 12.87 29.9707C13.326 29.6482 24.0434 21.9098 23.9999 12.2499C23.9999 5.63344 18.6164 0.25 12 0.25C5.38357 0.25 0.000132055 5.63344 0.000132055 12.2424C-0.0433675 21.9098 10.674 29.6482 11.13 29.9707ZM12 3.24997C16.9634 3.24997 20.9999 7.28642 20.9999 12.2574C21.0314 18.9143 14.418 24.8917 12 26.8522C9.58353 24.8902 2.9686 18.9113 3.0001 12.2499C3.0001 7.28642 7.03655 3.24997 12 3.24997Z"/></g><defs><clipPath id="kclip0_964_17688"><path fill="#fff" transform="translate(0 .25)" d="M0 0H24V30H0z"/></clipPath></defs></symbol>
<symbol viewBox="0 0 73 72"  id="svg-phone"><g clip-path="url(#lclip0_964_17595)"><path d="M56.929 38.9947C56.5775 38.6426 56.16 38.3632 55.7004 38.1726C55.2408 37.982 54.7482 37.8839 54.2506 37.8839C53.7531 37.8839 53.2604 37.982 52.8008 38.1726C52.3413 38.3632 51.9238 38.6426 51.5722 38.9947L45.5335 45.0334C42.7339 44.1999 37.5097 42.3057 34.1987 38.9947C30.8876 35.6836 28.9934 30.4594 28.16 27.6598L34.1987 21.6211C34.5508 21.2696 34.8301 20.8521 35.0207 20.3925C35.2113 19.9329 35.3094 19.4403 35.3094 18.9427C35.3094 18.4452 35.2113 17.9525 35.0207 17.4929C34.8301 17.0333 34.5508 16.6159 34.1987 16.2643L19.0451 1.11076C18.6936 0.758646 18.2761 0.479298 17.8165 0.288701C17.3569 0.0981045 16.8642 0 16.3667 0C15.8692 0 15.3765 0.0981045 14.9169 0.288701C14.4573 0.479298 14.0398 0.758646 13.6883 1.11076L3.41418 11.3849C1.97459 12.8245 1.16387 14.802 1.19418 16.8212C1.28131 22.2159 2.70954 40.9533 17.4767 55.7204C32.2439 70.4876 50.9813 71.912 56.3797 72.003H56.4858C58.4861 72.003 60.3765 71.215 61.8085 69.783L72.0826 59.5088C72.4347 59.1573 72.7141 58.7398 72.9047 58.2802C73.0953 57.8207 73.1934 57.328 73.1934 56.8304C73.1934 56.3329 73.0953 55.8402 72.9047 55.3807C72.7141 54.9211 72.4347 54.5036 72.0826 54.1521L56.929 38.9947ZM56.4479 64.4224C51.72 64.3428 35.5435 63.0737 22.8335 50.3599C10.0818 37.6081 8.84674 21.3749 8.77097 16.7417L16.3667 9.14594L26.1635 18.9427L21.2651 23.8411C20.8198 24.2861 20.4924 24.835 20.3125 25.4382C20.1326 26.0414 20.1058 26.68 20.2346 27.2961C20.3256 27.7318 22.5494 38.0627 28.8381 44.3515C35.1268 50.6402 45.4578 52.864 45.8934 52.9549C46.5092 53.0874 47.1484 53.0627 47.7522 52.8833C48.356 52.7039 48.9049 52.3755 49.3485 51.9283L54.2506 47.0299L64.0474 56.8267L56.4479 64.4224Z" /></g><defs><clipPath id="lclip0_964_17595"><path fill="#fff" transform="translate(.5)" d="M0 0H72V72H0z"/></clipPath></defs></symbol></svg>